<svg xmlns="http://www.w3.org/2000/svg" xmlns:xlink="http://www.w3.org/1999/xlink" width="733.763" height="459.01" viewBox="0 0 733.763 459.01">
  <defs>
    <linearGradient id="linear-gradient" x1="1.141" y1="0.398" x2="-0.092" y2="0.452" gradientUnits="objectBoundingBox">
      <stop offset="0" stop-color="#f8f8f8"/>
      <stop offset="1" stop-color="#dedede"/>
    </linearGradient>
    <linearGradient id="linear-gradient-2" x1="0.042" y1="0.272" x2="0.542" y2="0.825" gradientUnits="objectBoundingBox">
      <stop offset="0" stop-color="#d2d2d2"/>
      <stop offset="1" stop-color="#f2f2f2"/>
    </linearGradient>
    <linearGradient id="linear-gradient-3" x1="0.276" y1="0.339" x2="0.723" y2="0.66" gradientUnits="objectBoundingBox">
      <stop offset="0" stop-color="#b23236"/>
      <stop offset="0.307" stop-color="#bc282e"/>
      <stop offset="0.835" stop-color="#d70f1a"/>
      <stop offset="1" stop-color="#e20613"/>
    </linearGradient>
    <linearGradient id="linear-gradient-4" x1="0.726" y1="0.869" x2="0.257" y2="0.107" gradientUnits="objectBoundingBox">
      <stop offset="0" stop-color="#2a1b38"/>
      <stop offset="1" stop-color="#401d60"/>
    </linearGradient>
    <linearGradient id="linear-gradient-5" x1="0.328" y1="0.336" x2="0.7" y2="0.926" gradientUnits="objectBoundingBox">
      <stop offset="0" stop-color="#401d60"/>
      <stop offset="1" stop-color="#0d0613"/>
    </linearGradient>
    <linearGradient id="linear-gradient-6" x1="0.415" y1="0.358" x2="1" y2="0.295" gradientUnits="objectBoundingBox">
      <stop offset="0" stop-color="#919292"/>
      <stop offset="1" stop-color="#707575"/>
    </linearGradient>
    <linearGradient id="linear-gradient-8" x1="0.835" y1="0.125" x2="0.5" y2="0.776" gradientUnits="objectBoundingBox">
      <stop offset="0" stop-color="#06b5f5"/>
      <stop offset="1" stop-color="#5ccaf2"/>
    </linearGradient>
    <linearGradient id="linear-gradient-9" x1="-0.041" y1="0.462" x2="1.87" y2="0.548" gradientUnits="objectBoundingBox">
      <stop offset="0" stop-color="#aaa"/>
      <stop offset="1" stop-color="#383b3b"/>
    </linearGradient>
  </defs>
  <g id="Grupo_4292" data-name="Grupo 4292" transform="translate(-1012.846 -80.059)">
    <path id="Trazado_14187" data-name="Trazado 14187" d="M60.309.41c30.652,0,111.876-35.6,112.371-3.381S85.025,41.787,54.373,41.787-34.012,24.861-31.684,1.176,29.658.41,60.309.41Z" transform="translate(1269.408 465.101) rotate(11)" fill="url(#linear-gradient)"/>
    <path id="Trazado_14186" data-name="Trazado 14186" d="M-206.257,160.5c.959,33.7,17.165,64.249,44.707,82.009C-86.092,291.172,27.2,232.678-9.85,403.192c-20.785,95.659,90.728,111,211.138,116.407,89.906,0,72.71,43.013,142.2,35.724,90.244-8.264,120.381-51.047,155.061-94.05,51.789-72.136,25.545-222.685-12.053-300.769Z" transform="translate(1219.104 -80.445)" fill="url(#linear-gradient-2)"/>
    <g id="Grupo_4282" data-name="Grupo 4282" transform="translate(-302.514 -49.115)">
      <g id="Grupo_4278" data-name="Grupo 4278" transform="translate(1598.273 175.905)">
        <path id="Trazado_1" data-name="Trazado 1" d="M301.395,527.58c.256.533.51,1.065.768,1.6a79.323,79.323,0,0,0,63.5,44.639,65.86,65.86,0,0,0,8.608.392c24.674-.7,45.039-10.393,60.809-29.43a75.675,75.675,0,0,0,14.244-27.464c2.114-7.245,7.184-11.249,14.427-12.694a19.808,19.808,0,0,1,12.163,1.014,12.726,12.726,0,0,1,7.45,8.1,9.911,9.911,0,0,1-4.246,11.643,17.571,17.571,0,0,1-14.416,1.942,6.091,6.091,0,0,1-4.787-4.99,6.885,6.885,0,0,1,.392-3.3c.112-.351.221-.408.525-.184,2.65,1.928,5.691,1.934,8.758,1.731a13.662,13.662,0,0,0,3.731-.592c2.671-.951,3.346-3.176,1.629-5.435-1.846-2.435-5.57-3.519-9-2.623a11.258,11.258,0,0,0-8.13,12.329,15,15,0,0,0,.671,3.02c1.983,5.609,7.033,8.081,12.692,6.219a11.355,11.355,0,0,0,4.405-2.612.7.7,0,0,1,.958-.147q3.077,1.54,6.19,3.008c.464.219.6.352.254.844a16.867,16.867,0,0,1-12.465,7.266,21.71,21.71,0,0,1-10.34-1.179,17.287,17.287,0,0,1-7.145-5.1c-.149-.175-.293-.354-.445-.527a.625.625,0,0,0-.161-.084c-9.366,17.079-22.684,29.967-40.579,37.873a80.952,80.952,0,0,1-41.626,6.556A82.97,82.97,0,0,1,301.395,527.58Z" transform="translate(-301.395 -485.265)" fill="#b23236"/>
        <path id="Trazado_2" data-name="Trazado 2" d="M368.663,542.485c0,1.175-.014,2.176.007,3.174.009.408-.054.613-.548.608-2.559-.025-5.116-.02-7.676,0-.431,0-.652-.1-.59-.571a4.714,4.714,0,0,0,0-.6c0-13.163.086-26.331-.044-39.494-.047-4.761,3.139-7.077,6.315-7.832.665-.158,1.363-.187,2.041-.3.391-.065.529.079.5.456-.017.2,0,.4,0,.6q0,13.408.005,26.818a21.932,21.932,0,0,0,1.126,7.451c1.51,4.218,4.507,6.432,8.462,6.255a9.011,9.011,0,0,0,8.823-7.093,11.9,11.9,0,0,0-.846-8.544,8.82,8.82,0,0,0-8.685-5.071,14.02,14.02,0,0,0-2.647.308,6.963,6.963,0,0,0-4.305,2.531,7.1,7.1,0,0,1-.28-5.241c1.061-3.4,3.591-5.12,6.956-5.6,6.341-.9,11.365,1.554,15.2,6.49,5.507,7.084,5.125,18.193-.741,24.89a15.616,15.616,0,0,1-22.157,1.557C369.318,543.051,369.058,542.826,368.663,542.485Z" transform="translate(-257.484 -490.283)" fill="#363335"/>
        <path id="Trazado_3" data-name="Trazado 3" d="M327.909,548.039c-6.893-.312-12.354-3.629-16.488-9.322-.454-.625-.79-1.335-1.24-1.962-.366-.51-.191-.759.255-1.077q3.114-2.233,6.185-4.53c.448-.338.617-.324.909.193a16.721,16.721,0,0,0,6.614,6.611,7.809,7.809,0,0,0,6.646.594,4.178,4.178,0,0,0,2.535-5.919,10.612,10.612,0,0,0-2.356-3.262c-2.547-2.587-5.506-4.7-8.23-7.08a38.419,38.419,0,0,1-5.267-5.442c-5.917-7.7-1.89-17.108,6.644-19.387a16.514,16.514,0,0,1,13.85,2.181c2.346,1.552,3.919,3.723,3.812,6.732a6.471,6.471,0,0,1-2.965,5c-.448.34-.522-.047-.668-.3a11.36,11.36,0,0,0-3.167-3.7,8.644,8.644,0,0,0-8.06-1.4,5.373,5.373,0,0,0-1.526.781,2.979,2.979,0,0,0-.6,4.743,41.089,41.089,0,0,0,5.316,4.9,89.914,89.914,0,0,1,8.438,7.494,15.643,15.643,0,0,1,4.1,6.863A13.6,13.6,0,0,1,331.5,547.7,31.727,31.727,0,0,1,327.909,548.039Z" transform="translate(-294.94 -490.757)" fill="#363335"/>
        <path id="Trazado_4" data-name="Trazado 4" d="M417.583,509.433a13.177,13.177,0,0,1,13.12-4.325c4.92,1.018,7.637,4.447,8.844,9.187a10.58,10.58,0,0,1,.291,2.645q-.013,10.562,0,21.127a22.3,22.3,0,0,0,.53,5.56c.484,1.887,1.433,2.438,3.372,2.128a9.757,9.757,0,0,1,4.176-.257c.138.037.282.054.418.1,1.1.333,1.118.42.284,1.249a11.155,11.155,0,0,1-14.964.112,8.965,8.965,0,0,1-2.605-6.629c-.091-6.811-.129-13.623-.174-20.435a9.516,9.516,0,0,0-.364-2.633,5.583,5.583,0,0,0-5.339-4.23c-3.178-.188-6.672,2.146-7.313,4.9a5.535,5.535,0,0,0-.105,1.195c-.06,6.986-.121,13.969-.147,20.953,0,.642-.154.809-.8.8-2.443-.042-4.887-.035-7.329,0-.566.007-.708-.147-.708-.707q.026-16.9,0-33.8c0-.559.14-.717.706-.709q3.707.049,7.414,0c.565-.007.736.144.708.709C417.548,507.354,417.583,508.353,417.583,509.433Z" transform="translate(-220.688 -484.774)" fill="#363335"/>
        <path id="Trazado_5" data-name="Trazado 5" d="M353.911,541.9a15.435,15.435,0,0,1-11.4-5.627c-.377-.436-.389-.682.023-1.109q2.365-2.453,4.64-4.987c.391-.431.582-.4.97.013a10.371,10.371,0,0,0,6.266,3.476,5.337,5.337,0,0,0,3.029-.414,2.305,2.305,0,0,0,1.007-3.741,7.751,7.751,0,0,0-2.937-2.335c-1.858-.959-3.74-1.876-5.525-2.974a19.31,19.31,0,0,1-3.738-2.891A9.532,9.532,0,0,1,347.8,506.4a13.239,13.239,0,0,1,13.146-.933,5.956,5.956,0,0,1,3.834,6.379,5.335,5.335,0,0,1-2.906,4.129c-.361.2-.5.133-.716-.226a6.69,6.69,0,0,0-6.78-3.261,3.2,3.2,0,0,0-1.5.6,1.9,1.9,0,0,0-.163,3.1,8.969,8.969,0,0,0,2.184,1.359c1.724.846,3.454,1.675,5.167,2.54a17.752,17.752,0,0,1,3.37,2.226c6.6,5.523,5.109,15.169-2.859,18.475A16.357,16.357,0,0,1,353.911,541.9Z" transform="translate(-270.701 -485.236)" fill="#363335"/>
        <path id="Trazado_6" data-name="Trazado 6" d="M341.977,522.783c0,5.635-.012,11.27.016,16.9,0,.685-.179.869-.86.859-2.414-.042-4.827-.033-7.243-.005-.564.005-.8-.1-.8-.741.021-9.055-.014-18.111.026-27.165.019-4.483,2.626-7.14,7.121-7.432,1.741-.114,1.741-.114,1.741,1.627Z" transform="translate(-277.572 -484.484)" fill="#363335"/>
        <path id="Trazado_7" data-name="Trazado 7" d="M410.139,494.735a14.644,14.644,0,0,1-6.728,11.128,14.286,14.286,0,0,1-5.038,2.063c-.643.133-.734-.1-.718-.638a14.353,14.353,0,0,1,5.526-11.012,13.063,13.063,0,0,1,5.551-2.743C410.216,493.2,410.23,493.21,410.139,494.735Z" transform="translate(-229.042 -493.356)" fill="url(#linear-gradient-3)"/>
        <path id="Trazado_8" data-name="Trazado 8" d="M334,509.109c-.673-2.652-1.261-5.134-.771-7.716a4.25,4.25,0,0,1,4.281-3.7,4.636,4.636,0,0,1,4.476,3.447,4.446,4.446,0,0,1-2.6,5.229,20.394,20.394,0,0,1-2.442.793A4.333,4.333,0,0,0,334,509.109Z" transform="translate(-277.605 -490.094)" fill="#363335"/>
      </g>
      <text id="Portal_Ciudadano" data-name="Portal 
Ciudadano" transform="translate(1753.805 269.905)" fill="#757575" font-size="19" font-family="FuturaBT-BoldItalic, Futura Md BT" font-weight="700" font-style="italic"><tspan x="0" y="0">Portal </tspan><tspan x="0" y="23">Ciudadano</tspan></text>
    </g>
    <g id="Grupo_4280" data-name="Grupo 4280" transform="translate(1238.707 173.882)">
      <path id="Trazado_13413" data-name="Trazado 13413" d="M1092.852,394.589a.648.648,0,0,1-.241.1,1.619,1.619,0,0,1-.452,0c-.044-.061-.119-.078-.176-.124a.192.192,0,0,1-.005-.3.311.311,0,0,0,.032-.036.822.822,0,0,1,.792-.033.067.067,0,0,0,.012.012C1092.986,394.335,1092.994,394.423,1092.852,394.589Z" transform="translate(-976.257 -341.255)" fill="#9b9b9a"/>
      <path id="Trazado_576" data-name="Trazado 576" d="M132.641,100.4c0-7.076,5.29-12.813,11.816-12.813a11.07,11.07,0,0,1,5.92,1.722,13.037,13.037,0,0,1,5.9,11.091c0,7.076-5.29,12.813-11.815,12.813S132.641,107.472,132.641,100.4Z" transform="translate(-96.636 -69.352)" fill="#afafaf"/>
      <path id="Trazado_577" data-name="Trazado 577" d="M134.079,104.332s2.125-5.665-1.588-12.511c5.045,3.431,5.69,11.266,3.57,15.553C134.817,105.346,134.079,104.332,134.079,104.332Z" transform="translate(-77.471 -70.937)" fill="#717171"/>
      <path id="Trazado_602" data-name="Trazado 602" d="M163.161,100.083s-11.107-4.747-19.029-1.613a15.228,15.228,0,0,1-5.576-4.84s7.965-7.374,20.356-1.244C159.489,94.507,163.781,98.009,163.161,100.083Z" transform="translate(-107.288 -70.238)" fill="#c21537"/>
      <path id="Trazado_13514" data-name="Trazado 13514" d="M8.6,23.146C5.76,18.586,2.873,14.057,0,9.518Q.1,6.535.192,3.553q.1-.916.2-1.831Q.6.862.8,0c2.868,1.452,3.746,4.6,5.37,7.037,4.966,7.462,9.661,15.118,14.449,22.708A7.782,7.782,0,0,0,23.9,32.465c2.326,1.194,2.487,4.356,1.344,7.168-1.264-1.332-1.457-2.2-3.475-2.539-.429-.895-.943-3.44-1.823-3.675l.089.113-.8-.705.054.039a3.387,3.387,0,0,0-2.025-1.423l.032.046-3.4-2.511a.486.486,0,0,0-.5-.241Z" transform="matrix(-0.978, 0.208, -0.208, -0.978, 41.976, 112.873)" fill="#f2aa89"/>
      <path id="Trazado_13515" data-name="Trazado 13515" d="M19.894,22.338l-7.965-3.2a1.016,1.016,0,0,1-.472-.387L.184,1.688A1.069,1.069,0,0,1,1.5.108L7.593,3.094a1.017,1.017,0,0,1,.364.3L21.1,20.671A1.072,1.072,0,0,1,19.894,22.338Z" transform="matrix(-0.978, 0.208, -0.208, -0.978, 25.521, 88.758)"/>
      <path id="Trazado_13516" data-name="Trazado 13516" d="M2618.3,568.783s-3.646-3.8-10.741-3.686c-.223-5.806,1.442-30.64,9.108-28.63C2624.918,537.529,2619.153,564.63,2618.3,568.783Z" transform="translate(-2574.294 -477.841)" fill="#c21537"/>
      <path id="Trazado_13517" data-name="Trazado 13517" d="M2554.894,903.333c-4.175,5.778-7.878,7.585-15,3.261-2.124,1.239-9.491,4.115-8.715,7.106.814,3.168,5.863,4.222,8.715,4.286,4.935.108,11.375-4.856,15-7.794C2556.9,908.57,2557.37,905.05,2554.894,903.333Z" transform="translate(-2466.021 -621.77)" fill="#58559f"/>
      <path id="Trazado_13518" data-name="Trazado 13518" d="M2604.652,868.122c-4.174,5.778-6.966,6.709-14.088,2.386-2.125,1.239-10.655,5.37-9.885,8.361.82,3.168,5.023,3.426,7.876,3.489,3.05.067,9.339-3.794,11.772-5.24,1.5-.892,3.881-1.621,5.268-2.743C2607.6,872.752,2607.127,869.838,2604.652,868.122Z" transform="translate(-2546.225 -607.774)" fill="#58559f"/>
      <path id="Trazado_13519" data-name="Trazado 13519" d="M2556.078,707.51s-4.409,62.914,15.26,119.489c2.3,5.738-6.085,10.61-10.16,8.592-4.018-1.688-4.375-2.2-4.375-2.2s-21.291-58.707-19.9-123.672C2545.618,706.22,2556.078,707.51,2556.078,707.51Z" transform="translate(-2482.713 -547.843)" fill="url(#linear-gradient-4)"/>
      <path id="Trazado_13520" data-name="Trazado 13520" d="M2604.747,700.155s5.691,75.7,7.312,86.479,3.223,16.074-.257,17.314c-4.313,1.537-9.988,2.842-13.208-1.846-2.165-8.621-8.476-80.722-10.4-108.776A23.841,23.841,0,0,1,2604.747,700.155Z" transform="translate(-2554.438 -539.176)" fill="url(#linear-gradient-5)"/>
      <path id="Trazado_13521" data-name="Trazado 13521" d="M2565.309,585.249c.235,5.522.429,3.568.507,8.931.051,3.656-2.18,14.839-3.587,17.932a29.328,29.328,0,0,0-1.721,21.038c4.346,3.685,9.3,6.344,14.19,9.124l0-.059a7.1,7.1,0,0,0,2.744,1.4,76.086,76.086,0,0,0,10.371,1.551c3.716-.047,7.426.158,10.391-2.787,3.781-4.083,4.835-6.063,4.732-11.411-.023-1.137-.268-4.446-.45-6.508-.293-3.98-3.315-14.15-6.4-21.237-3.3-9.161-2.663-20.816-1.632-26.944.77-5.238,3.446-20.561,3.749-24.8-2.806-7.581,1.008,1.62-2.464-5.6-2.328-4.832-5.241-2.375-8.112-3.173-.447-.851-3.343-2.168-4.311-2.41-.249.278-1.222.71-.854.829a7.1,7.1,0,0,1-2.462.754c-5.188.58-6.243.874-8.385-4.211-5.181.041-5.056,5.08-5.578,8.212-.3,1.843-1.82,2.487-3.012,4.39C2553.909,561.2,2564.587,577.055,2565.309,585.249Z" transform="translate(-2526.794 -478.545)" fill="url(#linear-gradient-6)"/>
      <path id="Trazado_13522" data-name="Trazado 13522" d="M2552.61,515.489c.964.243,2.176.589,2.622,1.439,2.239,1.364,6.071,1.482,7.333,3.832,5.116,9.5-2.145,23.834.734,35.793,1.325,1.932,11.673,8.947,16.877,0,9.387-10.431,9.459-21.21-.071-31.548-5.208-5.645-9.088-11.572-8.674-19.92.324-6.573-2.984-11.236-8.866-13.885-2.182-.982-5.245.328-7.333-.844-1.615-.909-2.433-2.059-4-4.118-.38-4.854-3.318-5.837-9.442-6.247-2.832-.609-10.784-2.091-11.888,2.049-1.545,9.716,4.849,2.466,7.121.5,1.821,2.208,5.1,2.048,7.011,1.546,2.153.275,1.817,4.818,2.266,8.759,1.33-1.508,1.117-4.513,3.381-3.207,1.658.954,1.525,3,.688,4.655-1.6,3.2-.54,6.484-.5,9.74C2553.889,506.783,2552.765,511.373,2552.61,515.489Z" transform="translate(-2494.389 -452.459)" fill="#825838"/>
      <path id="Trazado_13523" data-name="Trazado 13523" d="M2608.945,511.524c-.041-3.255-1.105-6.544.5-9.74.832-1.659.969-3.7-.691-4.655-2.265-1.305-2.052,1.7-3.383,3.207-.449-3.941,1.432-7.659-2.045-9.04-1.908.5-6.228.692-7.232-1.52-3.091,2.557-4.148,1.589-6.49,2.017.016,3.911-.088,5.8,0,9.713.111,5.089,2.067,7.748,6.751,9.137,1.642.488,3.4.609,3.339,3.044-.062,2.265-.543,4.788-1.567,5.388-.964.836-.667,6.828,4.519,6.248,1.532-.171,6.965-1.993,7.5-3.59C2607.581,518.159,2608.3,515.86,2608.945,511.524Z" transform="translate(-2553.457 -459.949)" fill="#f2aa89"/>
      <path id="Trazado_581" data-name="Trazado 581" d="M191.208,119.067a14.966,14.966,0,0,0,6.094,8.155c3.987-2.5,17.711-10.254,14.877-21.573s-10.295-24.556-11.792-32.9c-1.192-2.639-1.53,5.046-6.143,4.473-9.005-1.118,1.056,3.556,2.938,7.742,1.146,2.549-.582,3.736,5.2,20.579.294,3.212-.465,6.274-4.376,8.484S193.609,116.653,191.208,119.067Z" transform="translate(-115.625 -62.658)" fill="#f2aa89"/>
      <path id="Trazado_582" data-name="Trazado 582" d="M182.061,148.594s-4.473-2.053-6.9-8.974C170.232,141.664,156,150.65,160.4,157.3,166.273,174.111,178.893,151.039,182.061,148.594Z" transform="translate(-99.878 -83.684)" fill="#c21537"/>
      <path id="Trazado_13247" data-name="Trazado 13247" d="M4.647,0c2.416-.084,4.256,3.61,4.11,8.25s-2.223,8.47-4.639,8.554S-.138,13.2.008,8.556,2.231.085,4.647,0Z" transform="translate(73.44 2.529) rotate(-16.769)" fill="#f2aa89"/>
      <path id="Trazado_1-2" data-name="Trazado 1" d="M0,2.186l.059.149A6.933,6.933,0,0,0,2.6,5.593a5.334,5.334,0,0,0,2.369.9,4.23,4.23,0,0,0,.665.037,5.746,5.746,0,0,0,4.7-2.743,7.655,7.655,0,0,0,1.1-2.559A1.456,1.456,0,0,1,12.542.047a1.287,1.287,0,0,1,.94.094A1.129,1.129,0,0,1,14.057.9a1.022,1.022,0,0,1-.328,1.085,1.161,1.161,0,0,1-1.114.181.532.532,0,0,1-.37-.465.766.766,0,0,1,.03-.308c.009-.033.017-.038.041-.017a.841.841,0,0,0,.677.161.892.892,0,0,0,.288-.055.32.32,0,0,0,.126-.506.605.605,0,0,0-.7-.244,1.065,1.065,0,0,0-.628,1.149,1.655,1.655,0,0,0,.052.281c.153.523.543.753.98.579a.861.861,0,0,0,.34-.243.048.048,0,0,1,.074-.014q.238.144.478.28c.036.02.047.033.02.079a1.281,1.281,0,0,1-.963.677,1.411,1.411,0,0,1-.8-.11,1.372,1.372,0,0,1-.552-.475l-.034-.049a.05.05,0,0,0-.012-.008A7.2,7.2,0,0,1,8.533,6.4a5.307,5.307,0,0,1-3.216.611A6.708,6.708,0,0,1,0,2.186Z" transform="matrix(0.966, 0.259, -0.259, 0.966, 37.307, 71.781)" fill="#b23236"/>
      <path id="Trazado_2-2" data-name="Trazado 2" d="M.684,4.2c0,.11,0,.2,0,.3,0,.038,0,.057-.042.057-.2,0-.4,0-.593,0C.016,4.55,0,4.54,0,4.5A.53.53,0,0,0,0,4.44C0,3.213.01,1.986,0,.759A.687.687,0,0,1,.488.03C.539.015.593.012.646,0,.676,0,.686.009.684.044c0,.019,0,.037,0,.056q0,1.249,0,2.5a2.437,2.437,0,0,0,.087.694c.117.393.348.6.654.583a.74.74,0,0,0,.682-.661,1.317,1.317,0,0,0-.065-.8.674.674,0,0,0-.671-.473.908.908,0,0,0-.2.029.529.529,0,0,0-.333.236.789.789,0,0,1-.022-.488A.644.644,0,0,1,1.349,1.2a1.123,1.123,0,0,1,1.174.6,2.206,2.206,0,0,1-.057,2.32,1.07,1.07,0,0,1-1.712.145Z" transform="matrix(0.966, 0.259, -0.259, 0.966, 45.225, 72.775)" fill="#363335"/>
      <path id="Trazado_3-2" data-name="Trazado 3" d="M1.385,4.774A1.579,1.579,0,0,1,.111,3.905c-.035-.058-.061-.124-.1-.183s-.015-.071.02-.1Q.276,3.414.513,3.2c.035-.032.048-.03.07.018a1.455,1.455,0,0,0,.511.616.513.513,0,0,0,.513.055.416.416,0,0,0,.2-.552,1,1,0,0,0-.182-.3c-.2-.241-.425-.438-.636-.66a3.381,3.381,0,0,1-.407-.507A1.194,1.194,0,0,1,1.092.06a1.1,1.1,0,0,1,1.07.2A.74.74,0,0,1,2.456.89a.633.633,0,0,1-.229.466c-.035.032-.04,0-.052-.028A1.029,1.029,0,0,0,1.931.983.578.578,0,0,0,1.308.852.392.392,0,0,0,1.19.925a.312.312,0,0,0-.046.442,3.5,3.5,0,0,0,.411.457,7.57,7.57,0,0,1,.652.7,1.542,1.542,0,0,1,.317.64,1.278,1.278,0,0,1-.862,1.58A2.043,2.043,0,0,1,1.385,4.774Z" transform="matrix(0.966, 0.259, -0.259, 0.966, 38.739, 70.93)" fill="#363335"/>
      <path id="Trazado_4-2" data-name="Trazado 4" d="M.681.434a.922.922,0,0,1,1.014-.4.987.987,0,0,1,.683.856,1.181,1.181,0,0,1,.022.247q0,.984,0,1.969a2.49,2.49,0,0,0,.041.518c.037.176.111.227.261.2A.629.629,0,0,1,3.024,3.8l.032.009c.085.031.086.039.022.116a.756.756,0,0,1-1.156.01.936.936,0,0,1-.2-.618c-.007-.635-.01-1.27-.013-1.9a1.06,1.06,0,0,0-.028-.245A.457.457,0,0,0,1.267.769.586.586,0,0,0,.7,1.226a.618.618,0,0,0-.008.111Q.687,2.314.683,3.29c0,.06-.012.075-.062.074-.189,0-.378,0-.566,0C.011,3.365,0,3.35,0,3.3Q0,1.723,0,.148C0,.1.011.081.055.082q.286,0,.573,0C.671.081.684.1.682.148.678.24.681.333.681.434Z" transform="matrix(0.966, 0.259, -0.259, 0.966, 51.314, 75.645)" fill="#363335"/>
      <path id="Trazado_5-2" data-name="Trazado 5" d="M.9,3.517a1.13,1.13,0,0,1-.88-.524.07.07,0,0,1,0-.1q.183-.228.358-.465c.03-.04.045-.038.075,0a.778.778,0,0,0,.484.324.349.349,0,0,0,.234-.039.235.235,0,0,0,.078-.349.634.634,0,0,0-.227-.218C.882,2.056.737,1.97.6,1.868A1.567,1.567,0,0,1,.31,1.6,1,1,0,0,1,.43.209.876.876,0,0,1,1.446.122a.577.577,0,0,1,.3.595.5.5,0,0,1-.225.385c-.028.019-.039.012-.055-.021a.494.494,0,0,0-.524-.3A.226.226,0,0,0,.822.832a.2.2,0,0,0-.013.289.689.689,0,0,0,.169.127c.133.079.267.156.4.237a1.377,1.377,0,0,1,.26.207,1.093,1.093,0,0,1-.221,1.722A1.073,1.073,0,0,1,.9,3.517Z" transform="matrix(0.966, 0.259, -0.259, 0.966, 42.643, 73.217)" fill="#363335"/>
      <path id="Trazado_6-2" data-name="Trazado 6" d="M.687,1.642c0,.525,0,1.05,0,1.575,0,.064-.014.081-.066.08-.186,0-.373,0-.559,0C.018,3.3,0,3.288,0,3.228,0,2.384,0,1.54,0,.7,0,.279.2.031.552,0,.687-.007.687-.007.687.156Q.687.9.687,1.642Z" transform="matrix(0.966, 0.259, -0.259, 0.966, 41.406, 73.055)" fill="#363335"/>
      <path id="Trazado_7-2" data-name="Trazado 7" d="M.964.128a1.429,1.429,0,0,1-.52,1.037,1.007,1.007,0,0,1-.389.192C.006,1.37,0,1.349,0,1.3A1.447,1.447,0,0,1,.427.272.954.954,0,0,1,.856.016C.97-.015.972-.014.964.128Z" transform="matrix(0.966, 0.259, -0.259, 0.966, 50.344, 73.455)" fill="url(#linear-gradient-3)"/>
      <path id="Trazado_8-2" data-name="Trazado 8" d="M.073,1.064A1.967,1.967,0,0,1,.014.344C.047.133.173,0,.345,0A.377.377,0,0,1,.69.321a.441.441,0,0,1-.2.487A1.377,1.377,0,0,1,.3.883.338.338,0,0,0,.073,1.064Z" transform="matrix(0.966, 0.259, -0.259, 0.966, 41.716, 71.877)" fill="#363335"/>
    </g>
    <g id="Grupo_4281" data-name="Grupo 4281" transform="translate(1328.279 225.13)">
      <path id="Trazado_13524" data-name="Trazado 13524" d="M157.877,101.266c0-7.557-5.65-13.683-12.619-13.683a11.822,11.822,0,0,0-6.322,1.839,13.923,13.923,0,0,0-6.3,11.845c0,7.557,5.649,13.683,12.618,13.683S157.877,108.823,157.877,101.266Z" transform="translate(-101.877 -67.826)" fill="#afafaf"/>
      <path id="Trazado_13525" data-name="Trazado 13525" d="M135.826,105.182s-2.269-6.05,1.7-13.361c-5.388,3.665-6.077,12.032-3.812,16.609C135.038,106.265,135.826,105.182,135.826,105.182Z" transform="translate(-101.826 -69.231)" fill="#717171"/>
      <path id="Trazado_13526" data-name="Trazado 13526" d="M122.222,299.245c-.764,10.464,1.753,20.716,1.984,31.136.272,12.257.817,24.494-.331,36.735-.606,6.454-.187,12.944-.883,19.426a202.742,202.742,0,0,0-1.117,29.12c5.374,4.528,10.414,3.437,15.26-.908,1.724-6.752,1.166-13.733,1.5-20.556,1-20.23,3.077-40.46,1.936-60.752-.512-9.108-1.649-18.18-2.357-27.279-.292-3.75,3.913-8.284,7.578-8.38,2.639-.07,2.2,2.329,2.35,3.71.5,4.612.834,9.26.878,13.9.116,12.41.485,24.842-.062,37.229-.65,14.71-1.715,29.436-4.793,43.9-.5,2.339,1.218,3.981,1.287,6.069,6.132,4.088,8.751,4.711,14.22.17a454.65,454.65,0,0,0,5.793-59.994c.7-21.186-1.045-42.185-2.764-63.221a21.733,21.733,0,0,0-1.127-4.046c-.811,6.368-4.372,10.728-9.8,13.916a166.747,166.747,0,0,1-17.254,8.946C130.625,300.079,126.468,301.022,122.222,299.245Z" transform="translate(-98.266 -130.147)" fill="url(#linear-gradient-8)"/>
      <path id="Trazado_13527" data-name="Trazado 13527" d="M137.027,118.4s-2.057-1.508-2.493-6.768c-.127-1.525-.763-2.758-.246-4.307.683-2.05,1.181-1.722,1.944-3.052,1.2-2.1,2.438-6.211,4.405-7.309,2.344-1.308,3.9-1.629,9.745-1.87,2.053-.084-.04,2,1.329,2.363,6.825,1.823,8.285,1.511,7.957,6.6a35.324,35.324,0,0,1-1.706,9.515Z" transform="translate(-102.356 -70.316)" fill="#0f0b0a"/>
      <path id="Trazado_13528" data-name="Trazado 13528" d="M174.363,144.848" transform="translate(-115.713 -86.817)" fill="#f2aa89"/>
      <path id="Trazado_13529" data-name="Trazado 13529" d="M191.27,117.718a14.628,14.628,0,0,0,6.671,7.92c4.364-2.432,19.388-9.959,16.287-20.952s-11.27-23.849-12.909-31.953c-1.305-2.563-1.675,4.9-6.725,4.344-9.858-1.086,1.156,3.453,3.216,7.519,1.255,2.476-.637,3.629,5.7,19.987.322,3.12-.509,6.093-4.791,8.239S193.9,115.374,191.27,117.718Z" transform="translate(-121.083 -62.722)" fill="#c47f3f"/>
      <path id="Trazado_13530" data-name="Trazado 13530" d="M187.127,148.336s-4.9-1.994-7.55-8.716c-5.4,1.986-27.442,13-22.621,19.457C167.391,165.8,183.659,150.711,187.127,148.336Z" transform="translate(-109.713 -85.084)" fill="#c21537"/>
      <path id="Trazado_13531" data-name="Trazado 13531" d="M153.567,130.237c-5.147,1.026-5.371,6.1-1.638,6.768a3.215,3.215,0,0,0,1.337,2.423c4.18,2.939-.453,5.3-3.669,7.171a42.142,42.142,0,0,1-4.141,2.164c-2.214.983-4.686,2.154-6.83.417-2-1.619-2.1-4.14-1.47-6.593l.02.11a3.8,3.8,0,0,0,.288-.685,1.665,1.665,0,0,1,.158-.665c.536-7.158,2.774-13.995-.849-20.994.03-.517-.421-1.027-.441-1.533-.119-2.134-.628-4.179.343-4.5.313-.1-.221,5.767,1.895,5.964-1.379-5.357-.689-5.414.64-7.038.585-.714-1.846-4.011,4.939-4.773.944-.106-3.6,2.365-2.454,2.321,1.376-.053,4.922-.361,7.317-2.888,1.861-1.963.722,1.543,5.348.328,4.717-1.238,3.806-.459,4.725,1.05.07,2.581-.133,6.813.065,9.384C159.669,125.543,154.372,130.077,153.567,130.237Z" transform="translate(-103.022 -74.361)" fill="#c47f3f"/>
      <path id="Trazado_13532" data-name="Trazado 13532" d="M160,228.427l-1.094,1.179Z" transform="translate(-110.586 -114.535)" fill="#3f2e5b"/>
      <path id="Trazado_13533" data-name="Trazado 13533" d="M163.054,232.042s2.177-59.825-9.142-77.994c-2.918-4.02-8.2-4.687-10.865-4.575,1.48,2.379,5.136,4.439-.616,7.084s-8.137,2.988-9.874.771c-.189-2.548-.4-2.3-.24-4.329-6.637,3.218-13.609,2.248-13.937,16s2.635,67.84-.136,80.809c1.946,11.054,4.306,14.781,21.77,5.88S161.851,244.712,163.054,232.042Z" transform="translate(-97.103 -88.348)" fill="url(#linear-gradient-9)"/>
      <path id="Trazado_13534" data-name="Trazado 13534" d="M104.151,203.045a14.626,14.626,0,0,0-9.509-4.1c-2.816,4.127-12.887,17.578-5.2,26.023s16.694,13.324,39.962,12.875c4.308-1.452,8.028-5.047,5.328-9.351s-8.065-2.539-10.723-1.742-11.95,5.313-24.931-6.486c-1.684-2.646-2.27-5.677.6-9.512S102.848,206.317,104.151,203.045Z" transform="translate(-86.609 -104.757)" fill="#c47f3f"/>
      <path id="Trazado_13535" data-name="Trazado 13535" d="M97.66,187.37s5.271-.406,10.652,4.418c3.941-4.191,18.728-23.9,11.528-27.52C107.5,162.92,99.7,183.695,97.66,187.37Z" transform="translate(-90.275 -93.236)" fill="#c21537"/>
      <path id="Trazado_13536" data-name="Trazado 13536" d="M171.13,465.825c-5.469,4.541-8.088,3.917-14.22-.171a3.215,3.215,0,0,0,.083,3.9c2.531,3.411,14.18,7.73,18.338,6.522,1.775-.515,3.506-1.281,3.773-3.539.259-2.185-3.872-4.25-5.41-5.267C172.878,466.73,171.988,466.3,171.13,465.825Z" transform="translate(-109.72 -193.21)" fill="#0c0c0c"/>
      <path id="Trazado_13537" data-name="Trazado 13537" d="M137.2,483.851c-4.846,4.346-9.886,5.436-15.26.908.667,3.481,7.419,9.02,12.2,9.508.14.014,3.464.779,3.6.775,3.046-.076,5.694.427,7.079-3.09C146.354,488.045,139.254,485.658,137.2,483.851Z" transform="translate(-98.325 -199.245)" fill="#0c0c0c"/>
      <path id="Trazado_13538" data-name="Trazado 13538" d="M138.624,100.772s12.354-5.069,21.164-1.722a16.691,16.691,0,0,0,6.2-5.168s-8.859-7.875-22.641-1.329C142.709,94.817,137.935,98.557,138.624,100.772Z" transform="translate(-103.837 -68.611)" fill="#c21537"/>
      <ellipse id="Elipse_74" data-name="Elipse 74" cx="4.739" cy="8.238" rx="4.739" ry="8.238" transform="translate(68.175 2.735) rotate(-16.769)" fill="#c47f3f"/>
      <path id="Trazado_13539" data-name="Trazado 13539" d="M0,2.644l.069.18a8.344,8.344,0,0,0,2.953,3.94A6.073,6.073,0,0,0,5.78,7.855a4.743,4.743,0,0,0,.774.044,6.646,6.646,0,0,0,5.469-3.317,9.447,9.447,0,0,0,1.281-3.1A1.733,1.733,0,0,1,14.6.056,1.449,1.449,0,0,1,15.7.171a1.359,1.359,0,0,1,.67.913A1.265,1.265,0,0,1,15.985,2.4a1.311,1.311,0,0,1-1.3.219.639.639,0,0,1-.431-.562.96.96,0,0,1,.035-.372c.01-.039.02-.046.047-.021a.952.952,0,0,0,.788.2,1,1,0,0,0,.336-.067.394.394,0,0,0,.147-.613A.692.692,0,0,0,14.8.88a1.3,1.3,0,0,0-.731,1.389,2.072,2.072,0,0,0,.06.34c.178.632.633.911,1.142.7a1,1,0,0,0,.4-.294c.028-.035.05-.039.086-.017q.277.174.557.339c.042.025.054.04.023.1a1.493,1.493,0,0,1-1.121.819,1.588,1.588,0,0,1-.93-.133,1.616,1.616,0,0,1-.643-.574l-.04-.06s-.008-.005-.014-.009a8.6,8.6,0,0,1-3.65,4.268,5.984,5.984,0,0,1-3.744.739C3.332,8.114.99,5.785,0,2.644Z" transform="translate(36.963 81.972) rotate(-18)" fill="#b23236"/>
      <path id="Trazado_13540" data-name="Trazado 13540" d="M.8,5.076c0,.133,0,.245,0,.358,0,.046,0,.069-.049.069-.23,0-.46,0-.69,0C.018,5.5,0,5.49,0,5.437a.665.665,0,0,0,0-.068C0,3.886.012,2.4,0,.918A.829.829,0,0,1,.568.036C.628.018.691.015.752,0,.787-.006.8.011.8.053.795.076.8.1.8.121q0,1.511,0,3.022a3.055,3.055,0,0,0,.1.84c.136.475.405.725.761.705a.877.877,0,0,0,.794-.8,1.651,1.651,0,0,0-.076-.963A.787.787,0,0,0,1.6,2.354a1.021,1.021,0,0,0-.238.035.616.616,0,0,0-.387.285.989.989,0,0,1-.025-.591.762.762,0,0,1,.626-.631,1.294,1.294,0,0,1,1.367.731,2.756,2.756,0,0,1-.067,2.805,1.219,1.219,0,0,1-1.993.175Z" transform="translate(45.308 77.875) rotate(-18)" fill="#363335"/>
      <path id="Trazado_13541" data-name="Trazado 13541" d="M1.612,5.773A1.839,1.839,0,0,1,.129,4.722C.088,4.652.058,4.572.018,4.5A.081.081,0,0,1,.041,4.38q.28-.252.556-.51c.04-.038.055-.037.082.022a1.745,1.745,0,0,0,.595.745.579.579,0,0,0,.6.067A.511.511,0,0,0,2.1,4.036a1.225,1.225,0,0,0-.212-.368c-.229-.292-.5-.53-.74-.8a4.065,4.065,0,0,1-.474-.613,1.469,1.469,0,0,1,.6-2.185A1.239,1.239,0,0,1,2.517.318a.908.908,0,0,1,.343.759.777.777,0,0,1-.267.563c-.04.038-.047-.005-.06-.034a1.245,1.245,0,0,0-.285-.417.655.655,0,0,0-.725-.158.454.454,0,0,0-.137.088.387.387,0,0,0-.054.534,4.182,4.182,0,0,0,.478.553,9.028,9.028,0,0,1,.759.844,1.894,1.894,0,0,1,.369.774,1.554,1.554,0,0,1-1,1.911A2.294,2.294,0,0,1,1.612,5.773Z" transform="translate(37.805 80.183) rotate(-18)" fill="#363335"/>
      <path id="Trazado_13542" data-name="Trazado 13542" d="M.793.525A1.055,1.055,0,0,1,1.973.038a1.184,1.184,0,0,1,.8,1.035,1.482,1.482,0,0,1,.026.3q0,1.19,0,2.381a3.125,3.125,0,0,0,.048.627c.044.213.129.275.3.24a.706.706,0,0,1,.376-.029c.012,0,.025.006.038.011.1.038.1.047.026.141a.86.86,0,0,1-1.346.013A1.16,1.16,0,0,1,2,4.007C2,3.239,1.992,2.471,1.988,1.7a1.329,1.329,0,0,0-.033-.3A.541.541,0,0,0,1.475.93a.688.688,0,0,0-.658.552.776.776,0,0,0-.009.135Q.8,2.8.795,3.979c0,.072-.014.091-.072.09-.22,0-.44,0-.659,0C.013,4.069,0,4.052,0,3.989Q0,2.083,0,.179C0,.116.013.1.063.1Q.4.1.73.1C.781.1.8.115.794.179.79.291.793.4.793.525Z" transform="translate(53.091 76.868) rotate(-18)" fill="#363335"/>
      <path id="Trazado_13543" data-name="Trazado 13543" d="M1.051,4.253A1.307,1.307,0,0,1,.026,3.619a.087.087,0,0,1,0-.125q.213-.276.417-.562c.035-.049.052-.046.087,0a.9.9,0,0,0,.564.392.393.393,0,0,0,.272-.047.29.29,0,0,0,.091-.422.751.751,0,0,0-.264-.263c-.167-.108-.336-.212-.5-.335a1.854,1.854,0,0,1-.336-.326A1.246,1.246,0,0,1,.5.253.99.99,0,0,1,1.683.148a.705.705,0,0,1,.345.719.614.614,0,0,1-.261.465c-.032.023-.045.015-.064-.025a.572.572,0,0,0-.61-.368.259.259,0,0,0-.135.067.247.247,0,0,0-.015.349.805.805,0,0,0,.2.153c.155.1.311.189.465.286a1.615,1.615,0,0,1,.3.251A1.351,1.351,0,0,1,1.65,4.128,1.21,1.21,0,0,1,1.051,4.253Z" transform="translate(43.084 79.992) rotate(-18)" fill="#363335"/>
      <path id="Trazado_13544" data-name="Trazado 13544" d="M.8,1.986c0,.635,0,1.27,0,1.905,0,.077-.016.1-.077.1-.217,0-.434,0-.651,0C.021,3.988,0,3.976,0,3.9,0,2.883,0,1.863,0,.842,0,.337.239.038.643,0,.8-.008.8-.008.8.188Q.8,1.087.8,1.986Z" transform="translate(41.775 80.624) rotate(-18)" fill="#363335"/>
      <path id="Trazado_13545" data-name="Trazado 13545" d="M1.123.155A1.751,1.751,0,0,1,.518,1.41a1.156,1.156,0,0,1-.453.233C.007,1.657,0,1.631,0,1.57A1.784,1.784,0,0,1,.5.329,1.1,1.1,0,0,1,1,.02C1.13-.018,1.131-.016,1.123.155Z" transform="translate(50.729 75.266) rotate(-18)" fill="url(#linear-gradient-3)"/>
      <path id="Trazado_13546" data-name="Trazado 13546" d="M.086,1.286A2.467,2.467,0,0,1,.016.417C.055.16.2,0,.4,0A.446.446,0,0,1,.8.389.542.542,0,0,1,.57.978a1.568,1.568,0,0,1-.22.089A.4.4,0,0,0,.086,1.286Z" transform="translate(41.313 79.225) rotate(-18)" fill="#363335"/>
    </g>
  </g>
</svg>
