<svg xmlns="http://www.w3.org/2000/svg" width="205.508" height="193.961" viewBox="0 0 205.508 193.961">
  <g id="Grupo_3801" data-name="Grupo 3801" transform="translate(-844 -245.722)">
    <g id="Grupo_3800" data-name="Grupo 3800" transform="translate(844 245.722)">
      <ellipse id="Elipse_25" data-name="Elipse 25" cx="102.754" cy="34.472" rx="102.754" ry="34.472" transform="translate(0 125.017)" fill="#e6e6e6"/>
      <g id="Grupo_3339" data-name="Grupo 3339" transform="translate(11.366 0)">
        <g id="Grupo_2277" data-name="Grupo 2277" transform="translate(0 0)">
          <g id="Grupo_2275" data-name="Grupo 2275" transform="translate(44.023 0)">
            <path id="Trazado_11034" data-name="Trazado 11034" d="M119.746,276.022c-.045,1.561-.128,2.254-.206,3.067-1.053,11.637-2.436,21.664-3.472,33.3a68.488,68.488,0,0,0-.186,8.71c-2.1,2.584-3.711,2.687-6.151.379.116-8.632.116-8.7.45-12.76.607-7.55,1.429-14.568,2.271-22.08.371-3.381.119-6.828.871-10.139a13.621,13.621,0,0,1-.144-3.732,30.752,30.752,0,0,0-.112-3.847c-.045-.789-.1-1.581-.141-2.374-.02-.347-.045-.689-.066-1.036-.136-2.423-.264-4.842-.393-7.274.194.066.361-.108.563-.042a.739.739,0,0,1,.376-.036l.43-.2.555-.164c.025-.529.673-1.041.7-1.565.157-.058.326-.571.483-.571h.09l-.037-.368c1.2-.479,2.394-1.07,3.583-1.561.083,1.923.165,3.791.252,5.719.376,5.016.607,9.97.636,15.015A2.536,2.536,0,0,1,119.746,276.022Z" transform="translate(-102.569 -189.285)" fill="#8b8b8b"/>
            <path id="Trazado_11035" data-name="Trazado 11035" d="M133.534,264c-.009-.85.008-1.692-.026-2.534a127.664,127.664,0,0,0-2.386-20.033c-.363,1.04-.734,2.093-1.1,3.137a6.65,6.65,0,0,1-1.886,2.307,6.4,6.4,0,0,0-2.728,3l.1.045.1-.037c.228,3.025.706,5.465.8,9.04.058,1.767.223,2.9.26,4.372q.031,1.219.054,2.439c.132,1.289.2,2.308.227,3.34.227,10.865.049,20.8-1.722,31.447-.47,2.807-.665,3.43-1.605,9.168,2.918,2.584,3.744,2.634,6.4.383.12-.6.235-1.217.364-1.828a170.047,170.047,0,0,0,3.3-26.679A117.836,117.836,0,0,0,133.534,264Zm-2.1,1.3a3.569,3.569,0,0,1-.528.5,2.914,2.914,0,0,1-.408.269,3.348,3.348,0,0,0,.408-.269,4.28,4.28,0,0,0,.528-.508,3.09,3.09,0,0,0,.3-.124C131.63,265.215,131.531,265.251,131.432,265.3Z" transform="translate(-104.624 -187.464)" fill="#8b8b8b"/>
            <path id="Trazado_11036" data-name="Trazado 11036" d="M127.89,214.983c.182,5.751.963,11.464.765,17.23-.068,2.191-.257,4.365-.439,6.539-.364.826-.735,1.66-1.1,2.485a5.732,5.732,0,0,1-1.886,1.826c-1.016.561-1.776,1.176-2.97,1.747a24.61,24.61,0,0,1-3.9,2.156c-1.19.387-2.386.765-3.584,1.144,0,.008-.053.053-.053.053-.159.054-.325.106-.485.152a7.32,7.32,0,0,0-.849-2.046c-.97-1.977-2.826-3.44-3.357-5.675a12.7,12.7,0,0,1-.364-3.546q.011-11.343-.022-22.685c0-.675.273-1.471-.622-2.175-.014.114-.03.22-.053.326a1.107,1.107,0,0,1-.045.158c-.015.054-.031.1-.045.152a1.233,1.233,0,0,1-.107.251c-.045.1-.091.2-.144.288s-.1.159-.144.242a3.213,3.213,0,0,1-.2.288l-.181.25a.169.169,0,0,1-.031.045c-.1.129-.189.257-.273.387-.076.106-.144.219-.212.333a2.26,2.26,0,0,0-.136.273,2.218,2.218,0,0,0-.159.447c-1.1-.235-2.205-.478-3.311-.712.773-3.273,2.818-5.8,4.895-8.32a19.074,19.074,0,0,1,4.137-3.774c.553-.363,1.652-1.134,2.335-.953-.122,2.2-.33,2.453,1.845,2.377a3.926,3.926,0,0,0,2.138-.584c1.841-.985,1.638-1.031.5-2.864a3.561,3.561,0,0,1,4.676,1.358c1.788,3.031,3.947,5.864,5.251,9.175C127.352,212.422,127.276,212.581,127.89,214.983Z" transform="translate(-101.717 -181.389)" fill="#3d3d3d"/>
            <path id="Trazado_11037" data-name="Trazado 11037" d="M113.768,252.47c-.432.28-.2.982-.637.982l-.61.465a3.289,3.289,0,0,0-.717.026c-.2-.053-.384-.38-.581-.433-.394-.3-.9-.324-1.16-.816-3.159-6.016-7.258-11.546-8.259-18.54-.629-4.388-.849-8.7.674-12.964,1.107.25,2.213.512,3.319.762a30.672,30.672,0,0,0,2.636,20.464c.3.6.478,1.147,1.2,1.253.531,2.235,2.387,3.7,3.357,5.676a7.324,7.324,0,0,1,.849,2.047" transform="translate(-101.325 -184.469)" fill="#c67f40"/>
            <path id="Trazado_11038" data-name="Trazado 11038" d="M154.787,241.013c-.277.434.227.976-.173,1.158l-.364.676a3.27,3.27,0,0,0-.642.321c-.209.036-.507-.187-.708-.153-.481-.106-.955.078-1.393-.264-5.366-4.169-11.386-7.508-15.191-13.461-2.387-3.734-4.372-7.568-4.75-12.081,1.111-.23,2.226-.45,3.337-.68a30.673,30.673,0,0,0,10.867,17.539c.517.423.909.847,1.616.642,1.408,1.816,3.7,2.38,5.4,3.779A7.294,7.294,0,0,1,154.41,240" transform="translate(-105.8 -183.779)" fill="#c67f40"/>
            <path id="Trazado_11039" data-name="Trazado 11039" d="M127.733,184.327c.325,9.356-1.929,11.067-4.854,12.327-1.64.706-2.514.658-1.051,2.135.748.87.769,1.655.264,2.14a7.091,7.091,0,0,1-3.217,1.271,3.636,3.636,0,0,1-2.162-.708,4.242,4.242,0,0,1,.793-3.107c1.422-2.838-.192-4.065-2.323-7.606.846-.559.483-2.256,1.772-2.315,1.159-.054.673,1.419,1.3,1.961.969-3.716,1.506-4.124,5.231-4.112a2.964,2.964,0,0,0,2.024-.306Z" transform="translate(-103.376 -179.014)" fill="#c67f40"/>
            <path id="Trazado_11040" data-name="Trazado 11040" d="M121.5,178.242c3.036-.593,3.664.659,6.37,2.065.361,4.246-2.226,4.551-2.524,4.78a2.964,2.964,0,0,1-2.024.306c-3.724-.012-4.262.4-5.231,4.112-.627-.542-.141-2.015-1.3-1.961-1.289.059-.926,1.756-1.772,2.315C112.781,182.994,115.121,178.8,121.5,178.242Z" transform="translate(-103.229 -178.091)"/>
            <path id="Trazado_11041" data-name="Trazado 11041" d="M123.565,321.546c2.915,2.583,3.741,2.633,6.4.384.251.227.494.47.754.679.853.682,1.741,1.492,1.384,2.9a2.294,2.294,0,0,1-2.467,1.7c-2.222.038-4.08-1.24-5.763-2.933A2.258,2.258,0,0,1,123.565,321.546Z" transform="translate(-104.569 -199.319)" fill="#232323"/>
            <path id="Trazado_11042" data-name="Trazado 11042" d="M109.629,332.664c2.915,2.583,3.511,2.249,6.171,0,.251.227.725.854.985,1.062.853.682,1.742,1.492,1.384,2.9a2.3,2.3,0,0,1-2.467,1.7c-2.222.038-4.08-1.24-5.763-2.933A2.258,2.258,0,0,1,109.629,332.664Z" transform="translate(-102.507 -200.964)" fill="#232323"/>
            <path id="Trazado_11043" data-name="Trazado 11043" d="M106,221.409l-3.324-.748a5.805,5.805,0,0,1,1.1-3.221l3.319.712Z" transform="translate(-101.525 -183.914)" fill="#262626"/>
            <path id="Trazado_11044" data-name="Trazado 11044" d="M135.2,215.851c-1.078.325-1.587,1.386-2.5,1.928-.5-.084-.315-.724-.716-.891-.619-2.408-.539-2.564,1.865-3.658A6.229,6.229,0,0,1,135.2,215.851Z" transform="translate(-105.814 -183.291)" fill="#262626"/>
            <path id="Trazado_11045" data-name="Trazado 11045" d="M116.678,256.512l-.091-.06s.053-.045.053-.053Z" transform="translate(-103.583 -189.679)" fill="#bcbcbc"/>
          </g>
          <g id="Grupo_2276" data-name="Grupo 2276" transform="translate(0 20.91)">
            <path id="Trazado_11046" data-name="Trazado 11046" d="M175.535,226.635s2.966-3.694,6.3-8.185a21.008,21.008,0,0,0-3.2-2.959,12.1,12.1,0,0,1-1.481,2.289c-2.289,2.324-17.33,16.841-17.33,16.841a9.779,9.779,0,0,0-4.3,2.464c-.844.693-1.771,1.781-1.115,3.038.5.968,1.618,1.916,2.645,1.549,1.681-.6,3.506-1.263,4.272-3.146l0,.005C164.763,236.951,175.535,226.635,175.535,226.635Z" transform="translate(-154.188 -177.999)" fill="#513733"/>
            <path id="Trazado_11047" data-name="Trazado 11047" d="M185.459,198.33s13.224-1.828,9.589-14.371-15.372-17.463-22.434-6.067c-.347,10.576,3.22,10.238,4.466,11.529S185.459,198.33,185.459,198.33Z" transform="translate(-156.911 -171.488)"/>
            <path id="Trazado_11048" data-name="Trazado 11048" d="M193.265,290.59a20.728,20.728,0,0,0-6.333-1.178q.218,15.5.437,31l.448.872-.013-.019,1.924,1.757a.211.211,0,0,1,.3.036,3.451,3.451,0,0,0,3.441-2.211C193.606,310.761,193.69,300.674,193.265,290.59Z" transform="translate(-159.034 -188.938)" fill="#513733"/>
            <path id="Trazado_11049" data-name="Trazado 11049" d="M178.1,315.488a2.427,2.427,0,0,1-.795-.637s-.357-.467-.5-.674a1.481,1.481,0,0,1-.308-.726,13.463,13.463,0,0,1-.15-2.188q-.483-13.706-.912-27.414l6.238,3.655c.433,8.757.971,17.511.784,26.286-.951,1.845-2.373,2.481-4.349,1.7Z" transform="translate(-157.332 -188.115)" fill="#513733"/>
            <path id="Trazado_11050" data-name="Trazado 11050" d="M173.316,246.576a73.535,73.535,0,0,1,2.83-8.542c-.669,2.306-2.094,7.084-3.494,10.939A17.111,17.111,0,0,1,173.316,246.576Z" transform="translate(-156.92 -181.335)" fill="#7ac843"/>
            <path id="Trazado_11051" data-name="Trazado 11051" d="M178.59,212.779c-.269,4.488-.771,9.652-1.224,13.419-.216-.959-1.288-1.944-2.019-3.02-.249-.365-1.346-.706-1.346-1.026v0a133.171,133.171,0,0,1,1.4-15.567l.336,0c.312-1.961.988-3.315,1.832-3.431a.234.234,0,0,1,.077,0,.761.761,0,0,1,.617.814v0A76.16,76.16,0,0,1,178.59,212.779Z" transform="translate(-157.12 -176.172)" fill="#7ac843"/>
            <path id="Trazado_11052" data-name="Trazado 11052" d="M192.648,208.989v.018l-.008-.018Z" transform="translate(-159.878 -177.037)" fill="#ff1d25"/>
            <path id="Trazado_11053" data-name="Trazado 11053" d="M187.4,201.328c0,3.641-8,10.343-9.683,10.011-2.549-.5.278-10.109,1.989-11.916,1.628-1.99,1.253-3.25-1.022-4.206-1.9-.8-3.321-2.093-3.206-4.453.1-2.116.129-4.235.188-6.353a1.993,1.993,0,0,1,2.326,1.168,2.786,2.786,0,0,0,2.539,1.823c2.06-.215,3.3.316,3.331,2.726.69-.717.327-2.12,1.5-1.794,1.1.309.888,1.464.633,2.247a7.78,7.78,0,0,0-.1,5.509c-.975,2.64-.724,4.049.86,4.833" transform="translate(-157.337 -173.395)" fill="#513733"/>
            <path id="Trazado_11054" data-name="Trazado 11054" d="M175.3,317.512c1.719,1.821,4.2,1.455,6.295,2.18-1.156,2.767-7.324,4.172-9.3,2.122a1.6,1.6,0,0,1,.089-2.471C173.188,318.449,174.386,318.209,175.3,317.512Z" transform="translate(-156.788 -193.096)" fill="#ff921e"/>
            <path id="Trazado_11055" data-name="Trazado 11055" d="M186.627,324.964c.468,2.051,1.523,2.372,2.474,3.139,1.631.124,3.117-.07,3.739-2.24a1.527,1.527,0,0,1,.2,2.3c-1.5,2-6.113,3.394-8.538,2.617-.88-.282-1.665-.627-1.862-1.6a1.935,1.935,0,0,1,1.208-2.1C184.568,326.656,187.02,325.953,186.627,324.964Z" transform="translate(-158.392 -194.199)" fill="#ff921e"/>
            <path id="Trazado_11056" data-name="Trazado 11056" d="M191.928,236.854c-1.944-5.721-.644-7.4-.137-11.039,2.26-15.966-5.043-21.957-5.043-21.957-.117,3.382-5.622,7.1-8.384,8.758a16.773,16.773,0,0,1-1.66.885s-.485-5.883,1.219-9.7v0c0-.665.716-1.258,1.115-1.757a2.145,2.145,0,0,0-1.594.943,13.493,13.493,0,0,0-.978,1.753c-.27.586-.514,1.143-.751,1.678l-.66,0c-4.741,10.523-2.244,11.159-1.392,15.567v0c0,.319,1.545.66,1.793,1.026.731,1.076,2.467,2.061,2.467,3.02v0a18.81,18.81,0,0,1-1.488,6.643s-.21.008-.214.017-.1,0-.109.008a72.435,72.435,0,0,0-2.882,8.542,16.862,16.862,0,0,0-.691,2.4s-.014.009-.017.013c-1.9,9.273-.015,27.981,1.539,31.633,12.339,9.967,18.9,4.927,20.179,2.888C197.241,269.106,193.586,240.555,191.928,236.854Zm-8.625,21.4,0,0c.3,2.011-.935,3.51-2.077,4.881-.7.839-2.139.59-3.066.013-1.2-.748-.96-2.157-.586-3.182a9.79,9.79,0,0,1,2.447-4.309s5.563-20.149,6.353-23.315-2.564-20.772,4.1-19.908c3.032.39-.989,28.355-.989,28.355S185.455,255.146,183.3,258.254Z" transform="translate(-156.783 -176.009)" fill="#e86a13"/>
            <path id="Trazado_11057" data-name="Trazado 11057" d="M184.265,260.054l0,0c.3,2.011-.935,3.51-2.077,4.881-.7.839-2.139.59-3.066.013-1.2-.748-.96-2.156-.586-3.182a9.789,9.789,0,0,1,2.447-4.309s5.563-20.149,6.353-23.315-2.564-20.772,4.1-19.908c3.032.39-.989,28.355-.989,28.355S186.417,256.946,184.265,260.054Z" transform="translate(-157.745 -177.808)" fill="#513733"/>
          </g>
        </g>
        <g id="Grupo_2279" data-name="Grupo 2279" transform="translate(103.404 11.202)">
          <g id="Grupo_2278" data-name="Grupo 2278" transform="translate(38.513 62.055)">
            <path id="Trazado_11058" data-name="Trazado 11058" d="M114.072,281.466a3.568,3.568,0,0,0,1.848.424c.069,0,.142.057.209.094.025.014.038.048.06.069a1.582,1.582,0,0,1,.479,1.525c-.512,4.359-.982,8.722-1.47,13.083a2.036,2.036,0,0,1-.123.363.8.8,0,0,0-.052.231,7.159,7.159,0,0,1,.019.836q-1.2,10.912-2.409,21.821-.754,6.815-1.5,13.632a.475.475,0,0,1-.437.489,2.075,2.075,0,0,1-1.255-.154.423.423,0,0,1-.265-.487q.679-7.132,1.344-14.266.859-9.16,1.717-18.32.9-9.541,1.792-19.083C114.035,281.645,114.054,281.567,114.072,281.466Z" transform="translate(-103.891 -272.197)"/>
            <path id="Trazado_11059" data-name="Trazado 11059" d="M119.53,273.585a1.419,1.419,0,0,0-1.4-1.1,7.009,7.009,0,0,0-.889.057,7.346,7.346,0,0,1-4.067-.625,14.861,14.861,0,0,0-3.405-1.059,8.072,8.072,0,0,0-3.158-.057c-.039.019-.076.019-.114.038l-.076.038-.246.076-1.078.36-.417.283h-.019a.137.137,0,0,0-.113.076c-.4.4-.813.776-1.173,1.192a2.606,2.606,0,0,0-.3.7v.738l.132.681.095.454c.19.34.284.757.719.946V276.2c.094.151.209.321.322.472a2.379,2.379,0,0,0,.453-.416,5.138,5.138,0,0,1,1.419-1.287,6.556,6.556,0,0,0,.719-.548,1.956,1.956,0,0,1-.094.227,7.492,7.492,0,0,1,4.123-.284,2.655,2.655,0,0,1,2.194,2.157,10.636,10.636,0,0,1,.151,1.892.525.525,0,0,0,.3.491c.473.3,1.022.094,1.494.283.019,0,.038-.019.057-.038a.914.914,0,0,1,.549-1.021c.17-.076.359-.227.549.038.038-.189.076-.321.113-.472a3.3,3.3,0,0,1,2.118-2.441,1.536,1.536,0,0,0,.341-.189A1.3,1.3,0,0,0,119.53,273.585Zm-14.773,2.365-.019-.019.038-.019.019.019C104.775,275.93,104.775,275.949,104.756,275.949Z" transform="translate(-103.03 -270.674)"/>
            <path id="Trazado_11060" data-name="Trazado 11060" d="M111.214,343.122c.023.563.062,1.108.053,1.653,0,.109-.163.272-.285.316a2.785,2.785,0,0,1-2.49-.246.453.453,0,0,1-.2-.578c.137-.457.243-.923.368-1.409A2.694,2.694,0,0,0,111.214,343.122Z" transform="translate(-103.762 -280.862)"/>
            <path id="Trazado_11061" data-name="Trazado 11061" d="M115,280.4c.391.18.778.368,1.175.532a.7.7,0,0,0,.317-.022,3.8,3.8,0,0,1,.584-.08,5.256,5.256,0,0,1,.7.113c-.064.122-.1.307-.21.375a.37.37,0,0,1-.575-.116c-.048-.079-.262-.158-.292-.129a1.556,1.556,0,0,0-.206.414,2.332,2.332,0,0,1-1.461-.422c-.127-.094-.094-.4-.135-.612Z" transform="translate(-104.698 -272.047)"/>
            <path id="Trazado_11062" data-name="Trazado 11062" d="M103.2,275.556c-.038-.113-.094-.208-.132-.321a.836.836,0,0,1-.038-.3c.019-.057.019-.132.038-.208v.151Z" transform="translate(-103.023 -271.246)"/>
            <path id="Trazado_11063" data-name="Trazado 11063" d="M106.508,270.993l-1.078.36c.359-.133.7-.284,1.04-.417C106.489,270.955,106.508,270.974,106.508,270.993Z" transform="translate(-103.363 -270.711)"/>
            <path id="Trazado_11064" data-name="Trazado 11064" d="M118.259,279.687a1.712,1.712,0,0,1-.068.44.412.412,0,0,1-.252.192c-.077.022-.232-.013-.255-.065a.33.33,0,0,1,.021-.3,3.251,3.251,0,0,1,.478-.342Z" transform="translate(-105.089 -271.935)"/>
            <path id="Trazado_11065" data-name="Trazado 11065" d="M111.264,342.665c-.516.576-2.157.387-2.38-.241A2.087,2.087,0,0,0,111.264,342.665Z" transform="translate(-103.85 -280.801)"/>
          </g>
          <path id="Trazado_11066" data-name="Trazado 11066" d="M109.487,269.981c-.394.35-.049,1.025-.495,1.093l-.548.564a3.344,3.344,0,0,0-.722.137c-.216-.022-.448-.326-.655-.35-.444-.239-.963-.19-1.3-.649-4.125-5.611-9.127-10.586-11.214-17.519-1.31-4.349-2.194-8.684-1.305-13.24,1.159.084,2.32.18,3.479.263a31.436,31.436,0,0,0,5.812,20.331c.392.562.66,1.089,1.414,1.086.88,2.183,2.986,3.381,4.272,5.236a7.481,7.481,0,0,1,1.174,1.944" transform="translate(-63.079 -204.293)" fill="#c67f40"/>
          <path id="Trazado_11067" data-name="Trazado 11067" d="M75.878,291.894a2.071,2.071,0,0,1-.478,1.585,27.835,27.835,0,0,1-.278,3.135c-1.442,11.931-3.337,22.209-4.756,34.131a53.363,53.363,0,0,0-.244,8.926c-2.872,2.648-5.081,2.753-8.417.392.15-8.849.15-8.918.6-13.081.837-7.733,1.965-14.927,3.116-22.626.5-3.466.163-6.994,1.186-10.39a10.579,10.579,0,0,1-.2-3.824,23.365,23.365,0,0,0-.151-3.945c-.058-.81-.129-1.62-.186-2.43-.034-.357-.07-.715-.093-1.063-.186-2.482-.361-4.964-.546-7.455.278.07.558-3.495.837-3.425.29-.07.581-3.826.861-3.826h.011c.593,0,1.186,2.886,1.78,2.52l-.082,1.673.093.781c.035-.54.058-.62.093-1.16.222-.061.442.1.663.03l.128.2-.058-.1c1.64-.488,3.279-.954,4.907-1.45.116,1.967.232,3.959.337,5.928C75.529,281.56,75.843,286.73,75.878,291.894Z" transform="translate(-58.678 -208.242)" fill="#5e5e5e"/>
          <path id="Trazado_11068" data-name="Trazado 11068" d="M89.411,282.87c-.011-.871,0-1.732-.035-2.6a101.471,101.471,0,0,0-3.219-20.528q-.739,1.606-1.478,3.214a7.721,7.721,0,0,1-2.544,2.369c-1.374.723-2.933,1.524-3.678,3.065l.126.052.137-.044c.309,3.1.951,5.609,1.077,9.267.08,1.811.3,2.969.355,4.485.023.827.046,1.664.07,2.5a31.562,31.562,0,0,1,.309,3.423c.3,11.13.069,21.311-2.327,32.232-.63,2.874-.893,3.509-2.165,9.388,3.941,2.648,5.054,2.7,8.639.392.161-.618.309-1.245.492-1.872A134.242,134.242,0,0,0,89.6,300.872C89.96,294.889,90.247,288.854,89.411,282.87ZM86.58,284.2v-.009c.058-.018.127-.044.2-.061C86.707,284.159,86.637,284.176,86.58,284.2Z" transform="translate(-60.701 -207.076)" fill="#5e5e5e"/>
          <path id="Trazado_11069" data-name="Trazado 11069" d="M76.236,341.024c3.786,2.647,4.86,2.7,8.315.393.326.233.642.483.98.7,1.107.7,2.262,1.529,1.8,2.976-.449,1.4-1.895,1.728-3.2,1.746a11.729,11.729,0,0,1-7.485-3.005A1.961,1.961,0,0,1,76.236,341.024Z" transform="translate(-60.671 -218.548)" fill="#232323"/>
          <path id="Trazado_11070" data-name="Trazado 11070" d="M61.785,351.482c3.91,2.383,4.71,2.075,8.279,0,.337.21.972.788,1.322.98,1.143.63,2.336,1.377,1.855,2.679-.464,1.256-1.956,1.555-3.308,1.572a13.133,13.133,0,0,1-7.731-2.705A1.624,1.624,0,0,1,61.785,351.482Z" transform="translate(-58.63 -220.024)" fill="#232323"/>
          <path id="Trazado_11071" data-name="Trazado 11071" d="M83.831,266.112c2.513-1.448,4.3-6.674,5.006-8.808,1.877-5.6-1.281-13.669.223-19.364.343.284-.027.855.441,1.086,1.052-.269,1.864-1.163,3.018-1.165a6.331,6.331,0,0,0-.562-2.966c-.308-3.636-1.6-7.046-2.475-10.55a3.65,3.65,0,0,0-4.194-2.7c.581,2.135.768,2.245-1.33,2.666a3.987,3.987,0,0,1-2.278-.041c-2.159-.561-1.878-.741-1.121-2.86a5.877,5.877,0,0,0-2.8-.977,11.34,11.34,0,0,0-5.715,2.169c-2.778,1.854-6.377,6.189-8.621,10.95l.983,1.294c-.626-.186-1.1-.256-1.455.922,1.021.568,3.739.746,4.753,1.311.685-.959.873-1.71,1.48-2.438.057-.038.284-.65.391-.764.069-.08.206-.388.283-.465a4.421,4.421,0,0,1,.324-.324c.123-.109.261-.237.39-.335a.206.206,0,0,0,.051-.046c.083-.066.169-.14.252-.206a2.314,2.314,0,0,0,.286-.228l.113-.1c-2.183,7.365-5.115,14.042-7.317,21.41-.361,1.183.1,3.064.076,4.293-.127,2.352,1.263,4.337,1.638,6.557a7.6,7.6,0,0,1,.236,2.26c.171.006.346-.005.52-.009a.291.291,0,0,0,.065-.035C68.616,266.828,78.131,269.11,83.831,266.112Z" transform="translate(-58.854 -201.528)" fill="#4cbeef"/>
          <path id="Trazado_11072" data-name="Trazado 11072" d="M65.924,269.315c-.506.15-.481.908-.913.78l-.736.277c-.2-.06-1.571.413-1.8.4-.186-.112-.266-.485-.444-.594-.3-.405-.791-.582-.9-1.141-1.345-6.833-3.755-13.464-2.693-20.626.665-4.494,1.709-8.792,4.452-12.537,1.013.569,3.406,1.847,4.42,2.415-3.61,6.55-3.828,12.24-2.619,19.584a11.321,11.321,0,0,0,.632,3.028c-.132,2.351.375,2.892.749,5.118a7.451,7.451,0,0,1,.235,2.258" transform="translate(-58.181 -203.708)" fill="#c67f40"/>
          <path id="Trazado_11073" data-name="Trazado 11073" d="M69.779,274.907l-.093-.062s.054-.047.054-.055Z" transform="translate(-59.805 -209.2)" fill="#bcbcbc"/>
          <path id="Trazado_11074" data-name="Trazado 11074" d="M82.455,223.718l2.327,13.155,3.751-13.254Z" transform="translate(-61.607 -201.978)" fill="#dfdfdf"/>
          <path id="Trazado_11075" data-name="Trazado 11075" d="M96.1,205.075c-.888,9.553-1.792,11.036-3.208,12.1.205,1.822-5.972.142-4.676,1.835.648.982.567,1.782-.009,2.209a7.253,7.253,0,0,1-3.436.873,3.717,3.717,0,0,1-2.106-1,4.348,4.348,0,0,1,1.21-3.056c1.816-2.7.335-4.157-1.372-8.034.934-.458.785-2.231,2.1-2.123,1.184.1.5,1.531,1.066,2.163,1.469-3.651-1.431-7.926,2.353-7.428.692.091,7.073-.54,8.29.4Z" transform="translate(-61.614 -198.996)" fill="#c67f40"/>
          <path id="Trazado_11076" data-name="Trazado 11076" d="M90.534,198.462c3.164-.208,2.862.357,5.546,2.822,2.6,3.149-2.976,1.359-3.308,1.552-.7.408-3.07-.244-3.762-.335-3.784-.5-1.938,3.314-3.406,6.965-.568-.631.118-2.066-1.067-2.163-1.317-.108-1.17,1.664-2.1,2.123C81.049,202.157,83.974,198.2,90.534,198.462Z" transform="translate(-61.556 -198.422)" fill="#a7a7a7"/>
        </g>
        <g id="Grupo_3307" data-name="Grupo 3307" transform="translate(41.45 32.595)">
          <ellipse id="Elipse_68" data-name="Elipse 68" cx="5.966" cy="4.641" rx="5.966" ry="4.641" transform="translate(9.499 11.545)" fill="#010000"/>
          <ellipse id="Elipse_69" data-name="Elipse 69" cx="5.966" cy="3.315" rx="5.966" ry="3.315" transform="translate(6.848 18.174)" fill="#010000"/>
          <ellipse id="Elipse_70" data-name="Elipse 70" cx="5.966" cy="3.978" rx="5.966" ry="3.978" transform="translate(6.848 23.478)" fill="#010000"/>
          <path id="Trazado_10920" data-name="Trazado 10920" d="M1133.911,900.615a185.535,185.535,0,0,1-3.6,29.166c-.142.67-.266,1.338-.4,2-2.907,2.46-3.811,2.408-7-.418,1.031-6.271,1.241-6.956,1.754-10.021,1.939-11.647,2.131-22.5,1.882-34.382-.026-1.13-.1-2.246-.249-3.651,1.351.472,2.694,1.026,3.977.44a3.179,3.179,0,0,0,.6-.367,4.139,4.139,0,0,0,.579-.545c.107-.052.216-.094.323-.146s.215-.1.324-.147c.547-.378,1.1-.753,1.647-1.131A128.179,128.179,0,0,1,1133.911,900.615Z" transform="translate(-1102.901 -794.246)" fill="#c9a76d"/>
          <path id="Trazado_10921" data-name="Trazado 10921" d="M1126.606,890.822c-1.15,12.724-2.66,23.683-3.8,36.409a74.454,74.454,0,0,0-.2,9.519c-2.294,2.826-4.059,2.94-6.725.42.127-9.438.125-9.513.489-13.951.663-8.256,1.563-15.928,2.484-24.143.405-3.693.132-7.46.952-11.082,2.36.261,4.73.7,7.024-.523C1126.779,889.176,1126.689,889.933,1126.606,890.822Z" transform="translate(-1108.31 -789.15)" fill="#c9a76d"/>
          <path id="Trazado_10922" data-name="Trazado 10922" d="M1125.848,896.977a2.75,2.75,0,0,1-.382,1.684c-2.294,1.224-4.664.784-7.024.523a15,15,0,0,1-.156-4.08,32.866,32.866,0,0,0-.126-4.207c-.05-.858-.1-1.727-.149-2.6-.024-.377-.049-.753-.073-1.13q-.224-3.971-.431-7.952c.216.072.438-.9.663-.825.232-.072.464-1.252.687-1.252h.009c.48,0,.952.249,1.423-.138l-.065.368.075.123c.024-.576.049-1.012.073-1.587.175-.064.357-.072.53-.145l.1.116-.041-.142c1.309-.523,2.618-1.038,3.918-1.57.09,2.1.182,4.21.273,6.313C1125.566,885.963,1125.814,891.463,1125.848,896.977Z" transform="translate(-1107.03 -799.356)" fill="#3b4491"/>
          <path id="Trazado_10923" data-name="Trazado 10923" d="M1132.852,892.685c-.547.377-1.1.753-1.648,1.13-.11.052-.216.094-.324.147s-.216.094-.322.134a4.88,4.88,0,0,1-.58.556,3.921,3.921,0,0,1-.6.367c-1.283.585-2.625.031-3.977-.44-.016-.889-.032-1.779-.057-2.668-.042-1.613-.221-2.848-.285-4.778-.1-3.909-.626-6.577-.875-9.885l-.108.042-.107-.051a6.969,6.969,0,0,1,2.983-3.275,7.258,7.258,0,0,0,2.062-2.522c.4-1.141.8-2.292,1.2-3.432a140.006,140.006,0,0,1,2.612,21.9C1132.861,890.833,1132.844,891.753,1132.852,892.685Z" transform="translate(-1102.029 -804.353)" fill="#3b4491"/>
          <path id="Trazado_10924" data-name="Trazado 10924" d="M1140,863.206c.2,6.288,4.373,23.287,4.158,29.591-.074,2.394-1.065,2.989-1.263,5.367-.4.9,3.228,27.942,2.83,28.847a6.249,6.249,0,0,1-2.062,2c-1.11.613-1.94,1.285-3.248,1.909a26.973,26.973,0,0,1-4.266,2.357c-1.3.423-8.128,3.311-9.437,3.726,0,.009-6.042-2.6-6.042-2.6-.173.057-.538-9.42-.712-9.37-.124-.821-.578-14.226.516-21.612-4.925-.684.58-9.766,0-12.211a13.948,13.948,0,0,1-.4-3.876c.009-8.267-.086-10.266-.118-18.532-1.03.942-2.44-5.06-2.481-4.885-1.2-.258-.875-4.808-2.083-5.064.843-3.579,1.544-2.061,3.814-4.81a20.752,20.752,0,0,1,4.524-4.126c.6-.4,1.8-1.241,2.551-1.042-.134,2.4-.36,2.682,2.017,2.6a4.31,4.31,0,0,0,2.338-.639c2.012-1.077,1.79-1.128.547-3.132a3.894,3.894,0,0,1,5.113,1.484c1.956,3.314,2.693,2.052,4.118,5.673C1140.328,857.969,1141.01,860.954,1140,863.206Z" transform="translate(-1111.34 -821.576)" fill="#fff"/>
          <path id="Trazado_10926" data-name="Trazado 10926" d="M1132.361,839.122c.356,10.227-2.108,12.1-5.306,13.475-1.793.773-2.748.72-1.149,2.334.818.952.842,1.81.289,2.34a7.723,7.723,0,0,1-3.517,1.39,3.96,3.96,0,0,1-2.365-.775,4.636,4.636,0,0,1,.867-3.4c1.554-3.1-.21-4.444-2.54-8.316.926-.612.528-2.468,1.937-2.532,1.266-.057.736,1.553,1.423,2.145,1.058-4.062,1.646-4.509,5.717-4.494a2.936,2.936,0,0,0,1.948-.766Z" transform="translate(-1106.225 -827.494)" fill="#ae7f41"/>
          <path id="Trazado_10927" data-name="Trazado 10927" d="M1130.327,864.7a1.775,1.775,0,0,1,1.112.464c2.013,1.637,2.795,1.473,3.929-.957,1.265-2.708,1.293-5.748,2.174-8.563,1.02-3.253,1.14-6.792,3.182-9.723,1.239-1.779,2.377-2.265,3.7-1.306,1.552,1.121,1.253,2.5.225,3.754-2.34,2.847-2.69,6.4-3.605,9.753-.65,2.386-1.272,4.781-1.8,7.2-.559,2.537-1.7,4.583-4.422,5.126-2.864.573-5.08-.657-6.764-2.947-.164-.221-.308-.457-.459-.687C1128.592,866.214,1129.15,865.053,1130.327,864.7Z" transform="translate(-1099.548 -823.28)" fill="#ae7f41"/>
          <path id="Trazado_10928" data-name="Trazado 10928" d="M1126.15,836.125c3.32-.648,2.925.586,5.884,2.124.4,4.642-1.345,4.6-1.671,4.847a3.755,3.755,0,0,1-2.221.848c-4.073-.015-4.66.433-5.719,4.494-.687-.591-.154-2.2-1.421-2.145-1.411.064-.979,1.985-1.9,2.6C1116.649,841.385,1119.172,836.738,1126.15,836.125Z" transform="translate(-1106.629 -830.14)" fill="#040405"/>
          <path id="Trazado_10929" data-name="Trazado 10929" d="M1123.068,908.543c3.185,2.824,4.089,2.879,7,.42.274.248,1.956,1.567,2.241,1.795.932.747,1.9,1.631,1.512,3.176a2.505,2.505,0,0,1-2.695,1.861c-2.43.042-5.878-2.408-7.718-4.258A2.467,2.467,0,0,1,1123.068,908.543Z" transform="translate(-1103.043 -771.426)" fill="#ae7f41"/>
          <path id="Trazado_10930" data-name="Trazado 10930" d="M1116.017,914.168c3.186,2.824,3.839,2.459,6.746,0,.274.248,3.142,2.2,3.426,2.433.932.746,1.9,1.631,1.514,3.174a2.509,2.509,0,0,1-2.7,1.863c-2.428.042-6.81-2.626-8.649-4.476A2.47,2.47,0,0,1,1116.017,914.168Z" transform="translate(-1108.482 -766.693)" fill="#ae7f41"/>
          <path id="Trazado_10932" data-name="Trazado 10932" d="M1130.961,854.405c-1.178.355-3.289,6.615-3.289,6.615s-.192-3.4-.383-4.837c.1-2.874.479-4.79.575-8.477C1128.442,848.615,1130.842,853.26,1130.961,854.405Z" transform="translate(-1099.698 -813.551)" fill="#c9a76d"/>
          <path id="Trazado_10933" data-name="Trazado 10933" d="M1119.451,875.709l-.1-.066s.059-.05.059-.059Z" transform="translate(-1105.512 -797.988)" fill="#f19976"/>
          <path id="Trazado_13262" data-name="Trazado 13262" d="M-1526.5,7105.419s17.386,1.052,22.97-6.231c-.081,6.151-.4,6.231-.4,6.231s-5.5,7.446-23.149,4.857A25.832,25.832,0,0,1-1526.5,7105.419Z" transform="translate(1534.978 -7025.142)" fill="#944f4f"/>
          <path id="Trazado_13261" data-name="Trazado 13261" d="M-1523.639,6988.665a6.654,6.654,0,0,0,4.371,1.079c.692-1.827.581-1.7.719-1.593s8.7,1.649,11.274-1.951c-.25-6.064-2.287-9.374-2.287-9.374a9.724,9.724,0,0,0-12.106,0A91.649,91.649,0,0,0-1523.639,6988.665Z" transform="translate(1533.738 -6974.691)" fill="#fff"/>
          <path id="Trazado_13263" data-name="Trazado 13263" d="M-1514.454,7023.87s-1.942,24.282-10.441,39.823c-6.475.08-5.99-2.187-5.99-2.187s-12.232,21.5-4.982,27.379,13.816-4.651,13.816-4.651,3.283-11.491,0-18.057c5.882-12.173,11.079-30.64,10.533-39.668C-1513.98,7023.775-1514.454,7023.87-1514.454,7023.87Z" transform="translate(1539.514 -6995.918)" fill="#deca92"/>
          <path id="Trazado_10931" data-name="Trazado 10931" d="M1118.859,863.065c-1.209-.273-7.386-6.269-8.6-6.542,0-1.313,3.388-6.518,4.089-7.589,1.21.26,3.671,9.2,4.881,9.461C1118.833,859.582,1119.26,861.877,1118.859,863.065Z" transform="translate(-1110.261 -811.487)" fill="#c9a76d"/>
          <path id="Trazado_13264" data-name="Trazado 13264" d="M-1524.228,7119.054c-14.472,1.418-13.853-5.674-13.853-5.674s.079-.754.268-1.866c1.82,2.558.9,6.572,15.322,5.42C-1523.151,7117.857-1524.228,7119.054-1524.228,7119.054Z" transform="translate(1539.485 -7028.479)" fill="#72581b"/>
          <path id="Trazado_13265" data-name="Trazado 13265" d="M-1523.149,7119.033c-14.472,1.417-15.523-6.21-15.523-6.21s.2-.827.546-1.885c1.82,2.556,1.085,6.96,15.5,5.81C-1522.826,7117.491-1523.149,7119.033-1523.149,7119.033Z" transform="translate(1540.969 -7032.645)" fill="#72581b"/>
          <path id="Trazado_13266" data-name="Trazado 13266" d="M-1523.355,7119.334c-14.472,1.418-14.808-6.048-14.808-6.048s.213-.509.606-1.521c1.82,2.556-.035,6.285,14.382,5.133C-1523.213,7118.11-1523.355,7119.334-1523.355,7119.334Z" transform="translate(1542.054 -7037.953)" fill="#72581b"/>
          <path id="Trazado_13267" data-name="Trazado 13267" d="M-1504.662,7025.814s1.255,16.1-10.462,39.983c-.783-.668-.721-.761-.721-.761s9.947-17.927,10.693-39.742C-1504.467,7025.731-1504.662,7025.814-1504.662,7025.814Z" transform="translate(1530.77 -6996.291)" fill="#72581b"/>
          <path id="Trazado_10925" data-name="Trazado 10925" d="M1125.232,891.968c-.471.307-.215,1.075-.695,1.075l-.667.508a3.617,3.617,0,0,0-.784.027c-.225-.057-.42-.414-.635-.471-.431-.324-.988-.355-1.269-.893-3.454-6.579-7.936-12.623-9.03-20.27-.686-4.8-.927-9.509.739-14.173,1.21.275,2.418.56,3.627.832a33.532,33.532,0,0,0,2.883,22.372c.324.656,2.47,6.08,4.986,7.576a7.963,7.963,0,0,1,.928,2.237" transform="translate(-1111.586 -812.684)" fill="#ae7f41"/>
        </g>
        <g id="Grupo_3317" data-name="Grupo 3317" transform="translate(82.59 32.882)">
          <g id="Grupo_3302" data-name="Grupo 3302" transform="translate(0 0)">
            <path id="Trazado_13271" data-name="Trazado 13271" d="M-1677.92,7053.493s10.077,46.251,7.356,63.779c-5.139-1.814-21.064-8.066-23.127-13.156s6.741-54.341,6.741-54.341Z" transform="translate(1711.107 -7009.469)" fill="#b22c91"/>
            <ellipse id="Elipse_71" data-name="Elipse 71" cx="7.204" cy="5.763" rx="7.204" ry="5.763" transform="translate(17.337 11.974)"/>
            <path id="Trazado_10934" data-name="Trazado 10934" d="M1145.142,863.886c1.419.42,3.109.436,3.54,2.347.6,2.358-.777,4.12-2.048,5.719-.735.927-2.3.7-3.32.093-1.321-.781-1.092-2.309-.714-3.431A10.575,10.575,0,0,1,1145.142,863.886Z" transform="translate(-1140.733 -793.061)" fill="#d49a71"/>
            <path id="Trazado_10935" data-name="Trazado 10935" d="M1143.81,885.993s7.2-21.934,7.968-25.382-1.01-21.163,2.259-21.7-.356,30.735-.356,30.735-3.994,15.657-6.248,19.078C1145.446,887.245,1143.81,885.993,1143.81,885.993Z" transform="translate(-1139.401 -815.168)" fill="#8b0a0a"/>
            <path id="Trazado_10937" data-name="Trazado 10937" d="M1163.036,868.535c1.276,4.677,1.227,9.521,1.747,14.29q1.721,15.775,3.112,31.585c.6,6.907-.876,11.7,0,18.591-.618,2.366-.07,3.036-1.84,2.943-1.8-.1-2.937-.592-3.5-2.8-.313-3.757-.464-6.129-.849-9.8-1.647-15.77-5.264-31.247-6.814-47.027-.154-1.569-.12-3.156-.174-4.733C1157.936,871.773,1160.831,871.095,1163.036,868.535Z" transform="translate(-1129.744 -788.948)" fill="#d49a71"/>
            <path id="Trazado_10938" data-name="Trazado 10938" d="M1153.628,926.63c.308-5.891-1.382-9.186-1.878-13.793-1.521-14.117-2.845-28.256-4.219-42.388-.108-1.091-.015-2.2-.016-3.3,3.129,1.585,6.06,3.565,9.4,4.721,1.621,16.854,2.71,39.76,3.461,47.023-2.129,3.131-.645,6.554-.439,9.831C1157.649,927.987,1155.535,928.559,1153.628,926.63Z" transform="translate(-1136.153 -790.177)" fill="#d49a71"/>
            <path id="Trazado_10939" data-name="Trazado 10939" d="M1156.292,841.609v.019l-.009-.019Z" transform="translate(-1128.362 -812.776)" fill="#cd4827"/>
            <path id="Trazado_10940" data-name="Trazado 10940" d="M1147.729,829.8a2.161,2.161,0,0,1,2.55,1.206,3.014,3.014,0,0,0,2.794,1.909c2.227-.285,3.578.261,3.678,2.869.729-.793.3-2.3,1.573-1.979,1.205.305,1,1.562.743,2.417a8.415,8.415,0,0,0,.029,5.968c-.988,2.886-.682,4.4,1.054,5.214-.021.317-.006.594.441.433l-.042-.047c-.426,2.305-2.051,2.415-3.883,2.1-2.772-.481-4.213-1.848-4.182-3.932,1.714-2.2,1.276-3.551-1.212-4.529-2.079-.816-3.649-2.183-3.585-4.743C1147.745,834.388,1147.718,832.092,1147.729,829.8Z" transform="translate(-1135.973 -823.274)" fill="#d49a71"/>
            <path id="Trazado_10941" data-name="Trazado 10941" d="M1151.443,898.7c1.908,1.928,7.758-1.9,7.091,2.252-1.184,3.025-9.923,5.706-12.112,3.534-.915-.91-.729-1.781.034-2.678C1147.3,900.822,1150.468,899.481,1151.443,898.7Z" transform="translate(-1133.969 -762.249)" fill="#300909"/>
            <path id="Trazado_13273" data-name="Trazado 13273" d="M1151.443,898.555c1.908,1.929,7.391-3.2,5.31,2.619-1.183,3.025-8.142,5.339-10.331,3.167-.915-.91-.729-1.781.034-2.678C1147.3,900.675,1150.468,899.333,1151.443,898.555Z" transform="translate(-1118.64 -754.437)" fill="#300909"/>
            <path id="Trazado_10943" data-name="Trazado 10943" d="M1158.629,843.588c-.856-1.987-.188-3.928.421-5.943.246-.856.456-1.78-.752-2.083-1.265-.324-.838,1.346-1.569,2.144-.106-2.605-1.455-3.074-3.681-2.788a2.974,2.974,0,0,1-2.8-1.872,2.138,2.138,0,0,0-2.541-1.176,3.8,3.8,0,0,1,2.151-3.566c3.985-2.368,9.881.1,10.852,4.609C1160.952,833.986,1160.418,845.071,1158.629,843.588Z" transform="translate(-1135.951 -824.724)"/>
            <path id="Trazado_10944" data-name="Trazado 10944" d="M1162.171,840.126s8.062,6.3,6.018,23.649c-.456,3.951-1.82,5.806.426,11.953,1.89,3.968,2.417,5.558,4.343,15.051-1.34,2.237-9.908,8.7-23.526-1.789-1.376-2.751-3.037-1.046-1.847-8,1.628-7.828,3.9-12.7,3.106-19.84s-3.329-7.059.4-19.821c.948-1.91,1.293-2.726,2.806-2.988a3.2,3.2,0,0,0,1.95,2.988S1159.583,842.764,1162.171,840.126Z" transform="translate(-1137.384 -815.665)" fill="#d50707"/>
            <path id="Trazado_10945" data-name="Trazado 10945" d="M23.822,2.36S24.881-.507,27.093.079c.752.287,2.005.9,1.08,4.743S24.38,21.86,24.38,21.86s-.948,4.573-3.117,4.4C19.986,26.162,0,24.814,0,24.814a7.112,7.112,0,0,0,1.168-3.968c2.647-.328,16.445.287,16.445.287a2.324,2.324,0,0,0,2.658-1.823C20.509,17.962,23.455,3.044,23.822,2.36Z" transform="translate(0 49.949) rotate(-37)" fill="#b20808"/>
            <ellipse id="Elipse_72" data-name="Elipse 72" cx="9.365" cy="2.881" rx="9.365" ry="2.881" transform="translate(10.134 4.77)" fill="#423441"/>
            <path id="Trazado_13268" data-name="Trazado 13268" d="M-1510.559,6982.526a21.175,21.175,0,0,1-3.776.773c-.813.1-7.179,1.053-9.3-1.249a11.122,11.122,0,0,1,1.887-5.993,9.854,9.854,0,0,1,9.991,0C-1510.255,6981.66-1510.559,6982.526-1510.559,6982.526Z" transform="translate(1535.35 -6974.692)" fill="#221620"/>
            <path id="Trazado_13269" data-name="Trazado 13269" d="M-1702.909,7036.785s2.219,7.362,12.233,5.57c4.884-.978,9.684,2.418,9.684,2.418s-3.762-26.744-10.327-24.122-6.325,1.874-6.449.685c.37-.711.751-1.654.751-1.654s-4.926-1.376-6.137,9.082C-1703.3,7030-1702.909,7036.785-1702.909,7036.785Z" transform="translate(1714.425 -6998.574)" fill="#62196b"/>
            <path id="Trazado_13270" data-name="Trazado 13270" d="M-1704.51,7041.4a10.938,10.938,0,0,0,11.122,5.513,19.467,19.467,0,0,1,7.982.262c2.651.92,2.622,1.319,3.063,1.683s4.764,22.2,4.469,23.055-7.333-22.535-13.889-22.134-6.811.426-9.861-1.227-2.338-1.083-2.885-2.48S-1704.51,7041.4-1704.51,7041.4Z" transform="translate(1715.63 -7003.887)" fill="#ff65d9"/>
            <path id="Trazado_13272" data-name="Trazado 13272" d="M-1706.874,7092.609c-2.2-.9-3.191,49-1.541,56.29,4.54,3.438.45-1.7,3.386,1.379s.713-.768,6.5,2.964,6.437,4.563,11.779,2.237,5.823,7.306,10.053,2.329c-1.482-11.852-.642-57.642-5.616-63.782C-1701.943,7102.059-1704.676,7093.5-1706.874,7092.609Z" transform="translate(1716.611 -7024.941)" fill="#6a200d"/>
            <path id="Trazado_10936" data-name="Trazado 10936" d="M8.309,2.637S3.688-.6,1.6.1C-.25,1.6-.737,3.512,1.438,5.229s4.947,1.936,5.7,1.376A3.693,3.693,0,0,0,8.309,2.637Z" transform="translate(5.255 68.788) rotate(-37)" fill="#d49a71"/>
          </g>
        </g>
      </g>
    </g>
  </g>
</svg>
